<?xml version="1.0" encoding="UTF-8"?>
<!-- Generator: Adobe Illustrator 24.2.3, SVG Export Plug-In . SVG Version: 6.00 Build 0)  -->
<svg xmlns="http://www.w3.org/2000/svg" xmlns:xlink="http://www.w3.org/1999/xlink" version="1.1" id="Layer_1" x="0px" y="0px" viewBox="0 0 698 264" style="enable-background:new 0 0 698 264;" xml:space="preserve">
<style type="text/css">
	.st0{fill:#F15A24;}
	.st1{fill:#FFFFFF;}
	.st2{enable-background:new    ;}
</style>
<g>
	<path class="st0" d="M158.1,198.6c57.3,0,112.4,3.4,164.2,9.8C369-52-29.7-54.8,13.3,206.2C59.4,201.2,107.9,198.6,158.1,198.6"></path>
	<path class="st1" d="M295.8,197.5c-0.5,0-1-0.1-1.7-0.2c3.2-4.6,4.6-9.8,2.6-15.2c-1.6-5.3-7.5-2.6-7.7-9.2   c-0.9-8.6-9.2-4.8-13.9-9.1c-6.8-6-14.5,0.8-19.3,5.9c-4.8,5.7-9.5-2.3-14.9,4.4c-13.3,16.8,5.7,25.5-12.7,23.6   c2.4-20.6,2.3-12.9,11-29.3c12.4-13.6-2-53.6-1.6-72.1c0.3-2.5-0.4-5.5,0.4-7.8c1.5-1.7,1.6-3.7,1.3-5.8c-1.9-7.8,4.5-8.5,8.6-3.1   c9,10,25.8,3.9,7-10.2c-6-4.4-11.4-9.4-16.7-14.7c-26-24.8-55.4,10.8-84.6,3.1c-11.3-3.3-23.5-3.5-34.5-7.9   c-14.8-5.6-32.9,1.8-39.4,16.7C77.3,71.8,73.5,76,69,79.7C65.1,82,58,90.9,66.1,92c4.7-0.8,6.6-5.9,9.3-9.3c7-6.9,12,2.7,11,9.4   c-0.7,5.1,1.7,7.5,2.8,11.8c-0.3,5.4-0.5,10.7-1.1,16.1c-5.8,33,3.5,52.4,24.7,77.1H89c8.6-7.4,9.7-23.7-2-28   c-8.3-1.1-10.7-20.7-24-11.2c-4.9,3.8-9.7-1.4-13.8,5.6c-2.8,5.7-8.7,3.9-10,9.8c-1,4.5-4.9,8.8-2.4,13.4c2.4,4.4,4.8,8,9.3,10.8   c-4.5,0.4-11.3-1.1-14.8,1c27.9,4.4,58.8,1.7,86.2,6.7c6,9.1,26.8,11.9,23.8,24.6c-7.7,23.3,20.7,31.6,38.5,30.1   c41.6-7.5,13.6-31.2,27.7-43.3c5.7-4.2,11.7-3.7,15.3-10c0.8-1.4,1.7-1.9,3.4-1.9c27-0.8,54.4-3.1,80.9-5.8   C303.8,196.4,299.6,197.9,295.8,197.5"></path>
	<path d="M295.8,197.5c-0.5,0-1-0.1-1.7-0.2c3.2-4.6,4.6-9.8,2.6-15.2c-1.6-5.3-7.5-2.6-7.7-9.2c-0.9-8.6-9.2-4.8-13.9-9.1   c-6.8-6-14.5,0.8-19.3,5.9c-4.8,5.6-9.5-2.3-14.9,4.4c-13.3,16.8,5.7,25.5-12.7,23.6c2.4-20.6,2.3-12.9,11-29.3   c12.4-13.6-2-53.6-1.6-72.1c0.3-2.5-0.4-5.5,0.4-7.8c1.5-1.7,1.6-3.7,1.3-5.8c-1.9-7.8,4.5-8.5,8.6-3.1c9,10,25.8,3.9,7-10.2   c-6-4.4-11.4-9.4-16.7-14.7c-26-24.8-55.4,10.8-84.6,3.1c-11.3-3.3-23.5-3.5-34.5-7.9c-14.8-5.6-32.9,1.8-39.4,16.7   C77.3,71.8,73.5,76,69,79.7C65.1,82,58,90.9,66.1,92c4.7-0.8,6.6-5.9,9.3-9.3c7-6.9,12,2.7,11,9.4c-0.7,5.1,1.7,7.5,2.8,11.8   c-0.3,5.4-0.5,10.7-1.1,16.1c-5.8,33,3.5,52.4,24.7,77.1H89c8.6-7.4,9.7-23.7-2-28c-8.3-1.1-10.7-20.7-24-11.2   c-4.9,3.8-9.7-1.4-13.8,5.6c-2.8,5.7-8.7,3.9-10,9.8c-1,4.5-4.9,8.8-2.4,13.4c2.4,4.4,4.8,8,9.3,10.8c-4.5,0.4-11.3-1.1-14.8,1   c27.9,4.4,58.8,1.7,86.2,6.7c6,9.1,26.8,11.9,23.8,24.6c-7.7,23.3,20.7,31.6,38.5,30.1c41.6-7.5,13.6-31.2,27.7-43.3   c5.7-4.2,11.7-3.7,15.3-10c0.8-1.4,1.7-1.9,3.4-1.9c26.9-0.8,54.4-3.1,80.9-5.8C303.8,196.4,299.6,197.9,295.8,197.5 M250.7,69.5   c2.6,1.6,15.5,10.8,7.7,12.3c1.1-5.3-6-7.5-8.1-11.9C250.4,69.8,250.6,69.6,250.7,69.5 M48.5,189.7c-3.6,1.6-7.1-4.6-8.4-7.2   c1.6-2.2,3.5-4.5,5-0.7C46.1,184.1,49.5,187,48.5,189.7 M49.5,170.4c0.9-5.2,6.5-4.2,6.6,0.5c-0.2,5.1,1.7,5.9,3.3,9.8   C57.8,189.5,47.5,174.2,49.5,170.4 M50.9,197.1c3.2-11.8,24.9-14.3,28.2,0H50.9z M77.8,177.7c-6.2,4.3-11.9,8.1-10.6-3.1   c0.7-15.9,7.5-9.8,12.7,0.1C79.1,175.8,78.6,177.1,77.8,177.7 M82.8,187.4c1.9-3.4,6.9-12.2,9-4.1c0.8,3.9-1.6,7.4-4.7,9.4   C84,194.6,80.7,190.1,82.8,187.4 M229.7,73.5c-7.1-4-15.2-7.8-19.7-15c6.2,0.4,12.5,0.1,17.9,3.7c-0.2,0.2-0.4,0.3-0.6,0.5   c-3.6,11.2,9.1,0.5,11.2,10.9C235.5,74.9,232.6,74.9,229.7,73.5 M89.9,74.8c0.1,0.3,0.3,0.7,0.4,1c-1.3,0.9-2.6,1.8-4.4,3.1   c1.7,0.3,2.9,0.6,4.7,0.9c-1.1,1-2.1,1.8-3.3,2.8C85.5,79,82.4,78,79.3,78c3.3-5.3,5-13.4,12.2-14.4c6.9-0.9,13.6-3.3,20.7-2.9   c-4.3,2.8,2.8,5.1-2.4,9c-1.2-3.8-4.2-3.9-7.6-3.6c-3.7,0.9-6.8,5.5-10.9,2.8C85.4,66.3,80.1,76.4,89.9,74.8 M97.6,163.4l0.3,6.2   C96.5,168.1,96.4,165.6,97.6,163.4 M139.7,208.7c-7.6,11.1-15.4-13.2-22.5-15.7c-3.3-2.3-9.5-9-12.4-15.3c-1.3-2.8,2.5-5.2,4.4-2.7   c2.5,3.1,4.7,6.4,6.9,9.8c8.2,9.2,19.5,9.9,24.3,21.7L139.7,208.7z M146.7,205.9c-4.6-3.9-2-3.3-3.8-7.1c-2.3-2.2-2.4-5-2.7-8.1   c1.4-0.4,2.8-0.7,3.6-1c1.2,5.5,2.4,10.7,3.5,15.9C147.1,205.7,146.9,205.8,146.7,205.9 M200.5,243.3c-1.4,13.7-44.8,9.8-49.6-1   c-8.6-16.6,8.3-23.3-0.9-51c7.1,3.9,7.7,1.6,14.7,1.6c5.8,0.8,5.3,24.5,5.4,31.1c0,1.3,2.1,1.2,2.1-0.1c1.5-41.3-7.6-24,19.9-36.1   C190.1,206.9,204.4,224.2,200.5,243.3 M170.6,148.2c-0.7-5-7.5-8.8-8.8-2c-0.6,3.2-0.9,4-3.2,3.9c-1-5.1-4-12.3,1.9-15.2   c11.8-8,42.3-5,33.6,14.1c-0.1-2.3-4.1,0.9-4.9-3.6c-0.8-6.6-9.3-4.4-9.2,1.4c-0.4,7.8,10.1,7.6,14,2.3c-3.3,6.7-9.8,9.8-15.8,14.2   c-4.5,2.1-2.6-11.7-3.6-14.1c-0.2,0-0.3,0-0.5,0c-0.6,2.7,0.8,13-3,11.8c-2.3-1.5-9.5-3.3-10.8-6.9   C164.3,155.5,172.1,153.9,170.6,148.2 M195.6,185.9c1.6,1.1,4.4,1.4,4.8,3.2c-0.8,3.9,1.2,13.8-4.2,14.2   C195,197.5,194.3,191.9,195.6,185.9 M219.3,197.1c-1.2,8.6-12.2,14.6-19,20.2c-0.8-2.4-2.6-8-3.2-10.5c5.2-1.1,6.6-7,11.2-9.1   c7.9-3.6,7.9-6.5,13.2-13C220.7,189.3,220,193.2,219.3,197.1 M226,170.1c-2.7,1.4-5.9-0.6-5.6-3.7c2.2-25.6-12.4-22.4-26-45   c0.9,9,8.3,15.9,13.6,22.8c9.8,8.6,13.9,49.3-6.9,41.7c-7.4-3.7-15.4-5.8-23.4-7.4c-1.2-0.2-1.6-0.7-1.6-1.9   c-0.2-11.7-0.6-8.6,8.8-14.6c29.3-18.9,6.5-41.8-20.7-33.4c-6.9,2-17,4.5-15.5,13.7c1.9,33.3,33.6,9.1,23.9,35.7   c-15.9,1.4-15,7.9-31,6.6c-9.6-1.2-12.7-9.5-9.8-18.8c0.8-20.1,9.7-27.7,21.1-41.9c-12.9,11.7-27.8,21.3-29.1,40.3   c-0.9,7.9-4.8,14.2-0.2,21.9c-12.2-6.3-3.8-13.1-12-17.8c-10.2-8.6-4.3-16,5.6-17.4c10.4-1.3,9.3-9.6,16.6-16.3   c4.1-3.8,14.6-14.2,16.4-24.8c0.2-0.9-1.1-1.4-1.6-0.6c-5.3,8.8-21.4,33.1-37.2,33.1c-6.9,0-15.2,13.1-15.7,9.2   c-1.6-17.8,3.2-35.3,4-53c0.2-2.7,1.5-5.3,3.7-7c5.7-4.7,3.2-9.1,15.7-9.9c6.5-0.4,21.8,0.7,19.2-1.6c-2.5-2.7-18.4-9.1-27.2-2.6   c1.8-5.1,7.8-8,9.3-13.8c-1.1,0.2-1.9,0.4-3.3,0.7c1.2-2.5-2-2.2-0.8-4.1c1.1-1.7,0.7-2.5-1-3.5c-6.7-3.9-10.6-1.6-17.7,1.7   c-8,3.7,3.7-10.2,15.4-8.3c6.8,1.7,12.8,7.8,20,8.3c21.3,6.2,20.2,11.4,45.1,6.2c7.4-1.2,14.9-9.7,21.6-13.2   c16.3-9,33.6-1,44.4,12.2c-0.3,0.3-0.2,0.2-0.4,0.5c-14.1-12.9-22.7-18.6-42-11.5c0.3,0.4,0.5,1,0.9,1.2c4.4,1.9,5.4,7.4,8.2,10.7   c-4.5-2.5-13.8-3.1-18-2.5c15.6,12.2,41.6,28.7,40.7,49.9c0,13.7,7.3,26.8,3.2,40.6c-3.4-4.5-8.5-6-12.9-8.7   c-10.1-5.9-16.7-15.5-24-24.3c-0.3,0.2-0.2,0.1-0.5,0.3c3.3,6.7,8.6,12.3,13,18.3c5.7,8.5,16.6,9.2,23,16.8   c-0.1,6.6-1.5,14.7-5.9,20c-0.7,0.8,3.3-13.3,2.4-13.1C231,162.1,226.8,169.7,226,170.1 M258.4,179.9c0.2-4.6,8.4-15.4,12.7-9.6   c0.3,0.6,0.4,1.8,0,2.2c-3.2,3.7-0.5,9.9-5.7,12.1C261.8,186.5,257.7,183.7,258.4,179.9 M251.6,182.1c-3.4,3.1,0.9,9.7-3.9,11.3   c-3.9,0.8-4.4-3.6-5.3-6.3C243.4,174.6,255.5,174.3,251.6,182.1 M276.5,197.2h-21.3c5.1-7,15.3-4.6,21.6-0.6   C276.6,196.9,276.6,197.1,276.5,197.2 M277.7,189.2c-3.3,1.9-4.4-2.4-2.4-4.4c3.4-2.8,4-6.7,6.1-10.3   C287.9,178.7,282.6,186.4,277.7,189.2 M293.2,193.5c-1.8,2.4-4.3,3.6-7.6,4.1c-0.6-0.3-1.5-0.7-2.4-1.2   C284.2,192.4,297.4,183.4,293.2,193.5"></path>
	<path d="M135.2,106.4c-10.7-11.2-13.8,5.1-21.1,2.4c0,0.3,0,0.7,0,1c2,0.7,4.8,0.8,6.3,2.4c4.3,7.7,11.7,5.7,17.9,3   C140.1,112.9,136.3,108.7,135.2,106.4 M129.2,116.5c-6.8,0.6-7.2-10.8-0.3-10.3C136.7,106.5,139.2,116.4,129.2,116.5"></path>
	<path d="M210.7,113.6c11.9-0.1,6.7-9.8,15.6-9.3c-1.7-2.9-4.9,0-7-2.3c-5.6-5-12-3.4-14.6,3.8C201.6,111.5,205.1,114,210.7,113.6    M205.5,107.1c3-9.5,15.6-4.5,10.6,3.5C212.9,113.2,203.7,112.6,205.5,107.1"></path>
	<path d="M133,108.1c-1.7-1.4-3.7-1.4-5.2,0.2c4.2,1.5,1.6,5.1-1,0.9C121.8,119.7,140.3,116.4,133,108.1"></path>
	<path d="M211.9,111.4c3.4,0,4.6-6.7,1.4-7.9c-3.1-1.2-5.8-0.8-5.1,3.4C203.4,108.1,209.2,111.9,211.9,111.4"></path>
	<path d="M400.9,187.9c7.9-0.6,19.2,0.1,18.8,9.8c0.3,9.9-10.6,10.6-18.8,10V187.9z M408.6,202.8c8.9-0.5,6.3-11.9-2.2-10.1v10.1   H408.6z"></path>
	<path d="M422.9,197.8c-0.5-13.3,21.7-13.5,21.3-0.1C444.7,211,422.5,211.2,422.9,197.8 M438.6,197.8c0.3-6.9-10.4-7.1-10.1-0.1   C428.2,204.6,438.9,204.7,438.6,197.8"></path>
	<path d="M447.5,197.8c-0.6-9.4,12.5-13.5,18.7-7.5l-3.2,3.9c-11.2-8.5-14,13.4-1.3,8.3v-2.4h-3.9v-4h9.1v8.9   C460.7,210.9,447,207.8,447.5,197.8"></path>
	<polygon points="484.9,192.6 478.9,192.6 478.9,187.9 496.3,187.9 496.3,192.6 490.3,192.6 490.3,207.6 484.9,207.6  "></polygon>
	<path d="M499.8,187.9c3.9,0.3,13.3-1.1,15.8,2.1c3.2,3,1.9,9.4-2.3,10.7l4.7,6.9h-6.3l-4-6c-0.1,0-2.3,0-2.4,0v6h-5.5L499.8,187.9   L499.8,187.9z M508.9,197.3c4,0.2,3.9-5.1,0-4.7h-3.6v4.7H508.9z"></path>
	<path d="M527.7,187.7h5.3l8.4,19.9h-5.9l-1.4-3.5h-7.6l-1.4,3.5h-5.8L527.7,187.7z M532.5,199.8l-2.2-5.6l-2.2,5.6H532.5z"></path>
	<rect x="544.6" y="187.9" width="5.5" height="19.8"></rect>
	<polygon points="554.8,187.9 560,187.9 568.1,198.3 568.1,187.9 573.5,187.9 573.5,207.6 568.7,207.6 560.3,196.8 560.3,207.6    554.8,207.6  "></polygon>
	<rect x="578.3" y="187.9" width="5.5" height="19.8"></rect>
	<polygon points="588.5,187.9 593.6,187.9 601.8,198.3 601.8,187.9 607.2,187.9 607.2,207.6 602.4,207.6 593.9,196.8 593.9,207.6    588.5,207.6  "></polygon>
	<path d="M611.1,197.8c-0.6-9.4,12.5-13.5,18.7-7.5l-3.2,3.9c-11.2-8.5-14,13.4-1.3,8.3v-2.4h-3.9v-4h9.1v8.9   C624.3,210.9,610.6,207.8,611.1,197.8"></path>
	<g class="st2">
		<path class="st0" d="M348.1,81.3h21.4c14.6,0,21.7,8.1,21.7,22.9v9.1c0,14.8-7.1,22.9-21.7,22.9h-6.9v37.7h-14.6V81.3z M369.5,123    c4.6,0,7.1-2.1,7.1-8.7v-11c0-6.6-2.5-8.7-7.1-8.7h-6.9V123H369.5z"></path>
	</g>
	<g class="st2">
		<path class="st0" d="M405.9,81.3h19.7l15.1,92.6h-14.6l-2.6-18.4v0.3H407l-2.6,18.1h-13.5L405.9,81.3z M421.8,143.2l-6.5-45.8    h-0.3l-6.4,45.8H421.8z"></path>
	</g>
	<g class="st2">
		<path class="st0" d="M442.6,81.3h14l6.5,71.2h0.3l6.9-71.2h15.9l6.9,71.2h0.3l6.5-71.2h12.6l-9.4,92.6h-18.1l-6.6-62.5h-0.3    l-6.6,62.5H452L442.6,81.3z"></path>
		<path class="st0" d="M517.2,152v-5.3H531v6.4c0,6.6,2.9,9,7.5,9c4.6,0,7.5-2.4,7.5-9.3c0-7.7-2.9-12.6-12.4-20.9    c-12.2-10.7-16.1-18.3-16.1-28.8c0-14.6,7.5-23,21.7-23c14.2,0,21.2,8.5,21.2,23.3v3.8h-13.8v-4.8c0-6.6-2.6-9.1-7.3-9.1    c-4.6,0-7.3,2.5-7.3,8.9c0,6.7,3,11.6,12.6,20c12.2,10.7,16,18.1,16,29.6c0,15.1-7.7,23.6-22,23.6S517.2,166.8,517.2,152z"></path>
		<path class="st0" d="M589.6,152V81.3h14.6V153c0,6.6,2.8,9,7.4,9c4.6,0,7.4-2.4,7.4-9V81.3h14V152c0,14.8-7.4,23.3-21.7,23.3    S589.6,166.8,589.6,152z"></path>
		<path class="st0" d="M643.3,81.3h21.4c14.6,0,21.7,8.1,21.7,22.9v9.1c0,14.8-7.1,22.9-21.7,22.9h-6.9v37.7h-14.6V81.3z M664.7,123    c4.6,0,7.1-2.1,7.1-8.7v-11c0-6.6-2.5-8.7-7.1-8.7h-6.9V123H664.7z"></path>
	</g>
</g>
</svg>
