<svg xmlns="http://www.w3.org/2000/svg" xmlns:xlink="http://www.w3.org/1999/xlink" id="Capa_1" x="0px" y="0px" width="1080px" height="1080px" viewBox="0 0 1080 1080" style="enable-background:new 0 0 1080 1080;" xml:space="preserve"><style type="text/css">	.st0{fill:#F15A24;}	.st1{fill:#FFFFFF;}</style><g>	<path class="st0" d="M512.4,563.3c151.4,0,297.3,9.1,434.2,25.9c8.5-33.4,13.1-68.4,13.1-104.5c0-232.5-188.5-420.9-420.9-420.9  S117.8,252.3,117.8,484.7c0,34,4,67,11.6,98.6C251.3,570.3,379.7,563.3,512.4,563.3z"></path>	<g>		<path class="st1" d="M876.7,560.4c-1.3,0-2.6-0.3-4.4-0.6c8.5-12.2,12.2-26,6.8-40.3c-4.3-13.9-19.7-6.8-20.4-24.5   c-2.3-22.8-24.2-12.6-36.8-24.1c-18-15.8-38.2,2-51.1,15.6c-12.7,15-25.1-6-39.4,11.5c-7.4,8.2-11.2,18.1-12.6,28.7   c-5.3,34,17.6,34.7-21.1,33.6c6.2-54.4,6.1-34,29.1-77.6c22.5-18.7,11.4-89,4.2-116.2c-6.3-23-1.9-47.4-8.7-70.4   c-0.4-1.2,0.3-2.8,0.4-4.1c0.7-6.5-1-14.6,1-20.7c4-4.6,4.2-9.7,3.4-15.2c-2.8-8.8,1.4-22.7,12.5-16.5c3.8,2.2,7.4,5.1,10.3,8.4   c23.9,26.6,68.2,10.4,18.6-26.9c-15.9-11.6-30.2-24.9-44.1-38.8c-58.8-57-125.2,6.3-190.8,10.4c-11.4,1.6-22.1,0.5-33.1-2.1   c-30-8.9-62.1-9.4-91.2-20.8c-39.2-14.8-87.1,4.8-104.3,44.2c-6.2,14-16.4,25.2-28.3,34.9c-6.7,5.9-14.6,11.8-17.1,20.9   c-1.8,6.1,3.3,12.5,9.6,11.7c12.4-2,17.5-15.7,24.6-24.5c5.4-8.1,21.4-8,25,1.2c2.9,7.3,4.6,15.8,4,23.6   c-1.9,13.4,4.5,19.9,7.4,31.1c-0.8,14.2-1.4,28.4-2.9,42.5c-6.3,49.1-9,103.8,23.1,145.1c5.6,7.4,11.5,14.7,15.8,22.9   c6.3,13.9,16,25.3,26.3,35.8c-20.8,0-41.5,0-62.8,0c18.4-18.9,23.2-37.9,10.5-61.8c-3.5-6.8-8.4-11.1-15.9-12.4   c-7.9-1.3-12.9-5.7-16.9-12.7c-8.8-17.3-29.1-32.6-46.6-17c-13,10-25.6-3.6-36.4,14.7c-7.5,15-22.9,10.2-26.5,25.8   c-2.7,11.9-13,23.3-6.3,35.3c6.4,11.7,12.6,21.1,24.6,28.7c-11.9,1.2-30-3-39.2,2.7c71.2,7.8,145.2,11,217.7,13.5   c4.3,0,7.4,1.1,10.4,4.3c17.1,18.3,35.5,25.4,55.6,40.4c7.3,6.6,10.4,14.5,7.2,24.8c-7.5,25.6,0,54.1,26,65.3   c24.2,11.4,50.3,15.6,75.9,14.2c22.3-3.3,54.5-12.4,61.8-39.3c11.4-26.1-14.1-55.5,11.5-75.3c15-11.2,31-9.8,40.6-26.3   c2.2-3.7,4.5-5.2,8.9-5.1c71.3-2.2,143.9-8.1,214-15.4C897.8,557.5,886.5,561.4,876.7,560.4z"></path>		<g>			<path d="M876.7,560.4c-1.3,0-2.6-0.3-4.4-0.6c8.5-12.2,12.2-26,6.8-40.3c-4.3-13.9-19.7-6.8-20.4-24.5    c-2.3-22.8-24.2-12.6-36.8-24.1c-18-15.8-38.2,2-51.1,15.6c-12.7,15-25.1-6-39.4,11.5c-7.4,8.2-11.2,18.1-12.6,28.7    c-5.3,34,17.6,34.7-21.1,33.6c6.2-54.4,6.1-34,29.1-77.6c22.5-18.7,11.4-89,4.2-116.2c-6.3-23-1.9-47.4-8.7-70.4    c-0.4-1.2,0.3-2.8,0.4-4.1c0.7-6.5-1-14.6,1-20.7c4-4.6,4.2-9.7,3.4-15.2c-2.8-8.8,1.4-22.7,12.5-16.5c3.8,2.2,7.4,5.1,10.3,8.4    c23.9,26.6,68.2,10.4,18.6-26.9c-15.9-11.6-30.2-24.9-44.1-38.8c-58.8-57-125.2,6.3-190.8,10.4c-11.4,1.6-22.1,0.5-33.1-2.1    c-30-8.9-62.1-9.4-91.2-20.8c-39.2-14.8-87.1,4.8-104.3,44.2c-6.2,14-16.4,25.2-28.3,34.9c-6.7,5.9-14.6,11.8-17.1,20.9    c-1.8,6.1,3.3,12.5,9.6,11.7c12.4-2,17.5-15.7,24.6-24.5c5.4-8.1,21.4-8,25,1.2c2.9,7.3,4.6,15.8,4,23.6    c-1.9,13.4,4.5,19.9,7.4,31.1c-0.8,14.2-1.4,28.4-2.9,42.5c-6.3,49.1-9,103.8,23.1,145.1c5.6,7.4,11.5,14.7,15.8,22.9    c6.3,13.9,16,25.3,26.3,35.8c-20.8,0-41.5,0-62.8,0c18.4-18.9,23.2-37.9,10.5-61.8c-3.5-6.8-8.4-11.1-15.9-12.4    c-7.9-1.3-12.9-5.7-16.9-12.7c-8.8-17.3-29.1-32.6-46.6-17c-13,10-25.6-3.6-36.4,14.7c-7.5,15-22.9,10.2-26.5,25.8    c-2.7,11.9-13,23.3-6.3,35.3c6.4,11.7,12.6,21.1,24.6,28.7c-11.9,1.2-30-3-39.2,2.7c71.2,7.8,145.2,11,217.7,13.5    c4.3,0,7.4,1.1,10.4,4.3c17.1,18.3,35.5,25.4,55.6,40.4c7.3,6.6,10.4,14.5,7.2,24.8c-7.5,25.6,0,54.1,26,65.3    c24.2,11.4,50.3,15.6,75.9,14.2c22.3-3.3,54.5-12.4,61.8-39.3c11.4-26.1-14.1-55.5,11.5-75.3c15-11.2,31-9.8,40.6-26.3    c2.2-3.7,4.5-5.2,8.9-5.1c71.3-2.2,143.9-8.1,214-15.4C897.8,557.5,886.5,561.4,876.7,560.4z M757.3,221.8    c6.8,4.1,40.9,28.4,20.3,32.5c2.5-8.1-2.8-11.6-8-16c-5.2-4.3-9.1-10.2-13.5-15.3C756.5,222.6,756.9,222.2,757.3,221.8z     M222.3,539.8c-9,4.2-13.8-8.1-19.5-13c-1.4-1.6-1.1-4.5-2.7-6.1c4.4-5.9,9.3-11.8,13.1-2C216.1,525,225.2,532.7,222.3,539.8z     M225.1,488.7c2.3-13.8,17.1-11,17.5,1.3c-0.6,13.5,4.4,15.6,8.7,25.8C247.1,539.2,219.8,498.8,225.1,488.7z M228.8,559.3    c8.5-31.1,66-37.7,74.7,0C278.3,559.3,253.6,559.3,228.8,559.3z M299.8,508.2c-16.5,11.3-31.6,21.5-28.1-8.3    c2.3-8.4-0.7-22,8.9-25.9c7-3.9,21.9,20.2,24.8,26.1C303.4,503.1,302.2,506.5,299.8,508.2z M313.1,533.8c5-9,18.1-32.4,23.7-10.8    c2,10.4-4.3,19.5-12.5,24.8C316.4,552.7,307.7,540.8,313.1,533.8z M701.7,232.4c-18.8-10.7-40.3-20.7-52.1-39.5    c16.5,1,33,0.4,47.3,9.8c-0.5,0.4-1,0.8-1.5,1.2c-3.7,10.7-2.2,16.8,10.2,15c11.8-0.5,14.1,1,19.4,13.8    C717.1,236.1,709.4,236.1,701.7,232.4z M331.9,235.8c0.4,0.9,0.7,1.7,1.1,2.6c-3.4,2.4-6.8,4.8-11.6,8.2    c4.5,0.9,7.8,1.6,12.4,2.5c-3,2.5-5.6,4.7-8.8,7.4c-4.7-9.4-12.7-12.2-21-12.3c8.7-13.9,13.2-35.4,32.2-38.1    c18.4-2.4,36.1-8.6,54.7-7.6c-11.4,7.4,7.3,13.4-6.4,23.7c-3.2-10.1-11.2-10.4-20.2-9.6c-9.8,2.4-17.9,14.4-28.9,7.4    C320.1,213.4,306.1,240.1,331.9,235.8z M352.4,470.2l0.8,16.5C349.4,482.7,349.1,476.1,352.4,470.2z M463.6,590.1    c-2.6,7.5-11.8,10.2-18,5.3c-0.1-0.1-0.2-0.2-0.3-0.2c-17.2-14.2-22.1-34.4-41.3-46.5c-8.8-6-25.1-23.9-32.8-40.6    c-3.4-7.5,6.5-13.7,11.7-7.3c6.6,8.2,12.4,17.1,18.4,26c3.5,4.4,7.8,8.6,12.6,11.5c24.7,15.2,30.4,17.6,49.7,39.1    c1.5,1.6,1.5,4.6,2.1,6.8L463.6,590.1z M482.1,582.6c-12.1-10.4-5.3-8.7-10-18.9c-6.1-5.7-6.4-13.3-7.1-21.5c3.8-1,7.3-2,9.6-2.6    c3.2,14.5,6.2,28.3,9.3,42.1C483.3,582.1,482.7,582.4,482.1,582.6z M624.5,681.6c-2.6,10-9,17.4-18.7,19.4    c-0.9,0.2-1.7,0.3-2.6,0.3c-32.7,3-57.9,6.2-89.7-6.3c-8.2-3.2-15.3-8.8-20-16.2c-22-34.4,15.7-66.4,3.6-105.1    c-0.4-1.2-0.8-2.4-1.1-3.7c-2.3-8.6-3.1-16.9-4.9-26.1c18.7,10.3,20.4,4.3,39,4.2c5.3,0,6.4,1.6,6.6,6.6    c7.2,22.5,8.2,48.9,7.7,75.8c-0.1,3.5,5.6,3.2,5.6-0.4v-74.8c0-3.5,2.7-6.5,6.2-6.8c16.5-1.6,32-6.1,46.4-14    C597.1,585.2,634.7,631.1,624.5,681.6z M545.5,430c-0.8-3.5-2.7-7-4.8-10c-2.6-3.6-6.3-6.1-11.1-4.9c-4.7,1.3-6.6,5.1-7.4,9.6    c-1.6,8.5-2.5,10.6-8.5,10.3c-2.1-7.3-3.1-15.2-4.3-22.3c-1.1-7.7,2.3-14.5,9.4-17.9c28.9-13.8,43.4-15.6,72.4-4.8    c20.5,7.6,25.8,23.3,16.4,42.1c0.4-1.3-0.7-2.7-2.2-2.5c0,0-0.1,0-0.1,0c-6.1,0.9-9-1-10.8-7c-0.5-1.7-0.9-3.5-1.6-5.1    c-2.5-5.1-8.8-7.5-13.7-5c-5.5,2.9-8.6,7.5-8.9,13.8c-0.3,6.3,2.2,11.2,7.7,14.4c8,4.7,22.7,0.4,29.3-8.1c0-0.1,0.1-0.1,0.1-0.2    c-0.4,0.8-0.8,1.5-1.2,2.3c-9.2,16.2-25.4,24-40.6,35.2c-2.6,1.9-6.4,0.3-6.6-3c-1-12.2-2-23.3-2.9-34.3c-0.5,0-0.9,0-1.4,0.1    c0,10.6-1.5,17.5-2.1,27.5c-0.2,3.3-2.9,5.1-5.9,3.8c-3.1-1.3-4-2.9-12.4-5.8c-7.7-2.1-12.8-6.7-16.2-12.6    c5.8,2,11.9,1.4,18.1-0.6C543.9,442.7,547.1,437.7,545.5,430z M611.7,529.7c4.2,3,11.8,3.6,12.6,8.5    c-2.2,10.3,3.1,36.5-11.1,37.6C609.9,560.5,608.2,545.6,611.7,529.7z M674.2,559.4c-3.1,22.9-32.3,38.8-50.2,53.5    c-2-6.3-7-21.2-8.5-27.7c13.9-3.1,17.6-18.6,29.7-24c20.9-9.5,20.9-17.2,34.9-34.4C678,538.7,676,549,674.2,559.4z M691.9,488.1    c-7.1,3.7-15.5-1.7-14.8-9.7c5.8-67.7-32.9-59.2-68.9-119.1c2.5,23.9,21.9,42.1,35.9,60.4c26,22.6,36.8,130.3-18.3,110.3    c-19.7-9.9-40.6-15.3-62-19.5c-3.1-0.6-4.2-1.9-4.1-5c-0.7-30.9-1.7-22.9,23.3-38.7c77.6-50.1,17.3-110.6-54.8-88.4    c-18.2,5.3-45,12-41,36.3c3.2,36,13.9,49.8,50.1,55.5c8.9,2.4,19.1,3.6,17,15.3c-1.2,6.1,2,20.7-3.9,23.7    c-41.9,3.6-39.6,20.9-81.9,17.6c-13.3-1-24.8-10.3-28-23.2c-1.8-7.4-0.5-14.2,2-26.6c2-53.1,25.6-73.3,55.9-110.9    c-34,30.9-73.6,56.3-76.9,106.6c-2.3,20.8-12.6,37.5-0.4,57.9c-32.2-16.6-10-34.6-31.8-47.1c-10.3-5.1-14.3-23.7-14.3-23.7    c-0.2-14.2,17.6-20.1,29.1-22.4c27.4-3.5,24.5-25.3,43.9-43.2c10.8-10,38.5-37.5,43.4-65.5c0.4-2.4-2.8-3.6-4.1-1.5    c-14.1,23.3-56.6,87.5-98.5,87.5c-18.3,0-40.2,34.6-41.5,24.4c-4.1-46.9,8.6-93.3,10.5-140.1c0,0,0-0.1,0-0.1    c0.5-7.2,4.1-13.8,9.7-18.4c15.1-12.5,8.4-24,41.6-26.1c17.2-1.1,57.7,1.8,50.8-4.2c-6.9-6-36.9-21.1-64-11.1    c-2.6,1-5.3,2.4-7.9,4.2c2.4-4.9,4.8-9.8,10-14.8c6.2-5.9,11.8-12.4,14.6-21.7c-2.8,0.6-5,1.1-8.7,1.9c3.1-6.5-5.4-5.8-2.1-11    c2.9-4.6,1.8-6.6-2.6-9.1c-17.8-10.4-28-4.3-46.9,4.4c-21.2,9.8,9.8-27,40.7-21.9c18.1,4.5,34,20.6,53,21.9    c18.6,2,36.7,14.7,54.6,20.4c21.1,5,43.4-1.9,64.6-3.9c19.7-3.2,39.5-25.8,57.2-34.9c28.3-14.4,62.1-13.4,88.1,4.7    c10.1,8.9,19.6,18.3,29.4,27.6c-0.7,0.9-0.4,0.5-1.2,1.3c-23.2-17.9-45-45.3-77.8-37.7c-10.9,2.7-23.2,2.4-33.2,7.3    c0.8,1.1,1.3,2.7,2.3,3.1c11.6,5,14.2,19.6,21.7,28.4c0,0,0,0,0,0c-10.2-4.7-21.2-7-32.4-7c-7.5,0-14.8,0-15.1,0.4    c41.3,32.2,110.1,76,107.8,131.9c0.1,36.3,19.4,70.9,8.6,107.4c-8.9-11.9-22.4-16-34-22.9c-26.7-15.7-44.2-41-63.5-64.3    c-0.8,0.5-0.6,0.4-1.4,0.9c8.7,17.7,22.7,32.5,34.4,48.4c11,13.5,25.6,22.5,41.4,29.4c8.3,3.6,13.5,7.2,19.3,15    c-0.2,17.5-4,38.9-15.5,52.8c-1.9,2,8.8-35.2,6.3-34.8C705.1,466.9,694.1,487,691.9,488.1z M777.7,513.8    c0.6-12.2,22.3-40.8,33.5-25.4c0.8,1.6,1.1,4.7,0.1,5.8c-8.4,9.7-1.2,26.2-15.2,32.1C786.7,531.4,775.8,523.8,777.7,513.8z     M759.5,519.8c-8.9,8.2,2.5,25.5-10.4,29.9c-10.2,2.1-11.8-9.6-14-16.8c1.1-9.9,4.6-18.1,12-24.4    C755.3,500.3,767.2,510.9,759.5,519.8z M825.5,559.8c-18.6,0-37.2,0-56.4,0c7.9-9.8,17.1-13.8,28.9-11c9.9,2.2,20.2,2.2,28.1,9.5    C825.9,558.8,825.7,559.3,825.5,559.8z M828.6,538.4c-2,1.2-6.6,1.4-7.6,0.2c-1.7-2.9-2-9.2,1.2-11.8c6.2-6.2,11-13.2,13-21.9    c0.4-1.8,1.9-3.3,3.2-5.2C855.7,510.8,841.6,531,828.6,538.4z M869.6,549.9c-4.7,6.3-11.4,9.5-20.1,10.9c-1.7-0.8-4-2-6.3-3.1    c3.4-9.5,13.3-13.6,20.7-19.6C872.5,533.4,873.6,544.8,869.6,549.9z"></path>			<path d="M451.7,319.6c-9.1-12.1-25-13.1-35.7-2.4c-5.6,5.6-10,12.6-20.1,8.8c0,0.9,0,1.7,0,2.6c3.7,1,7.4,1.8,11,3    c2,0.7,4.6,1.7,5.6,3.3c11.5,20.3,31,15.2,47.3,7.9c1.1-0.5,2.2-3.2,1.8-4.2C458.5,332.1,455.9,325.2,451.7,319.6z M435.9,346.2    c-8.1,0.3-13.8-5-14-12.9c-0.3-9.2,4.4-14.2,13.3-14.4c8.7-0.2,18.4,7.8,18.7,15.5C454.1,340.7,446.2,345.8,435.9,346.2z"></path>			<path d="M651.5,338.5c13-0.4,23.4-6.7,25.8-16.5c1.4-5.7,4.9-6.9,9.5-7.6c1.7-0.3,3.5-0.3,6-0.4c-3.4-3.8-4.5-4.4-9.9-3.4    c-3.5,0.6-5.9-0.3-8.6-2.7c-14.9-13.3-31.8-8.9-38.5,10c-1.7,4.7-4.8,11.4-2.9,14.4C636.7,338.1,644.5,338.8,651.5,338.5z     M637.7,321.4c3.7-9.7,12.8-15.9,20.4-13.8c9.6,2.7,14.2,15.5,7.6,23c-2.4,2.6-7.2,3.1-9.6,4.1c-5.2-0.7-8.8-0.9-12.3-1.7    C638.2,331.8,635.7,326.8,637.7,321.4z"></path>			<path d="M446,323.9c-4.4-3.7-9.8-3.6-13.8,0.6c1.5,0.8,3.1,1.3,4.3,2.2c2.7,2,1.8,6.4-1,5.7c-2.1-0.5-3.7-3.3-5.9-5.4    c-3.8,5.9-3.3,11.9,1.7,15.6c5,3.7,12.5,2.8,16.2-1.9C451.6,335.3,451,328.1,446,323.9z"></path>			<path d="M654.7,332.7c5,0,7.5-4.4,8.3-9.3c0.9-4.8-0.1-9.7-4.7-11.5c-3.6-1.4-8.6-2.3-12-0.3c-2.6,1.6-0.9,5.3-1.4,9.1    c-3.1,0.6-7.7,3-2.8,7.7C645.1,331.3,650.5,332.7,654.7,332.7z"></path>		</g>	</g>	<g>		<path class="st0" d="M127.4,691.7c17.5,4.6,35,9,52.6,13.1c35.7,8.4,51.3,30.1,47.6,64.2c-0.8,7-1.6,14-2.4,21.1   c-3.8,34-24.5,51.2-62.3,47.9c-6-0.6-11.9-1.1-17.8-1.7c-4.1,31-8.3,62-12.4,93c-13-0.1-26.1-0.2-39.1-0.3   C104.7,850,116,770.9,127.4,691.7z M166.9,805.9c11.9,1.5,19-2.9,20.9-18.6c1.1-8.7,2.2-17.5,3.2-26.2   c1.9-15.8-3.7-21.9-15.2-24.2c-5.7-1.1-11.4-2.3-17.1-3.4c-3.1,23.4-6.3,46.8-9.4,70.2C155.1,804.4,161,805.2,166.9,805.9z"></path>		<path class="st0" d="M269.5,722.8c16.3,2.8,32.6,5.4,49,7.7c6.8,68.4,14.7,134.9,23.5,200c-13-0.1-26.1-0.1-39.1-0.2   c-1.3-13.2-2.5-26.5-3.6-39.8c0,0.2,0,0.4,0,0.6c-14.6-0.4-29.2-0.9-43.8-1.4c-3.7,13.4-7.4,26.9-11.2,40.4   c-12.1-0.1-24.2-0.1-36.3-0.2C229.5,858.6,250,789.7,269.5,722.8z M297,863.5c-2.7-33.4-5.3-67.2-7.6-101.4   c-0.2,0-0.4-0.1-0.7-0.1c-8.5,32.9-17.2,66.1-26.1,99.7C274.2,862.4,285.6,863,297,863.5z"></path>		<path class="st0" d="M360.4,735.8c11.7,1.3,23.4,2.5,35.1,3.6c2.6,49.5,5.4,98.6,8.6,147.3c0.2,0,0.5,0,0.7,0   c8.6-48.5,16.8-96.7,24.8-144.6c13.3,0.9,26.5,1.7,39.8,2.3c4.3,48,8.9,95.8,13.9,143.4c0.2,0,0.5,0,0.7,0   c6.8-47.5,13.4-94.9,19.6-142.2c10.5,0.3,21,0.4,31.5,0.5c-8.2,61.6-16.9,123.1-26.2,184.8c-16.3,0-32.5-0.1-48.7-0.1   c-4.6-41.9-8.9-84-13-126.4c-0.2,0-0.5,0-0.7,0c-7.3,41.9-14.8,84-22.6,126.3c-17.3-0.1-34.6-0.1-52-0.2   C367.5,866.4,363.6,801.6,360.4,735.8z"></path>		<path class="st0" d="M547.4,887.3c0-3.5,0-7,0-10.6c12.1,0,24.2,0,36.3-0.1c0.1,4.2,0.1,8.5,0.2,12.7c0.2,13.2,8,18,20.3,18   c12.4,0,20-4.9,19.6-18.7c-0.4-15.5-8.5-25.3-33.6-41.7c-32-21.1-42.1-36.2-42.1-57.4c0.1-29.1,19-45.8,54.4-47   c35.4-1.4,53.7,14.3,55,44.7c0.1,2.6,0.2,5.2,0.3,7.8c-11.7,0.6-23.5,1-35.2,1.4c-0.1-3.2-0.2-6.4-0.3-9.6   c-0.4-13.4-7.2-18.1-18.9-17.8c-11.7,0.4-18.3,5.5-18.2,18.2c0.2,13.5,8,23.2,33.1,39.4c32.1,20.8,43,35.7,43.9,59.2   c1.4,30.9-18.6,48.1-57.1,47.9C566.5,933.8,547.3,916.8,547.4,887.3z"></path>		<path class="st0" d="M738.8,885c-3.4-49.8-6.7-99.6-10.1-149.4c12.1-1.4,24.2-2.9,36.3-4.6c4.1,51.7,8.3,103.5,12.4,155.2   c1.1,14.3,9,19.3,21.3,19.2c12.3-0.2,19.3-5.6,17.9-20.4c-4.9-53.2-9.8-106.4-14.7-159.5c11.6-1.9,23.2-3.9,34.8-6   c5.6,53.9,11.1,107.9,16.7,161.8c3.6,34.1-14.3,53.5-52.9,53.2C762,934.2,740.9,916.2,738.8,885z"></path>		<path class="st0" d="M862.3,714.5c17.7-3.6,35.3-7.4,52.9-11.6c35.7-8.8,56.1,7.2,61.6,46.3c1.1,8,2.2,15.9,3.4,23.9   c5.5,39-10,62.2-47.8,65.4c-6,0.5-11.9,1.1-17.9,1.6c3.7,30.5,7.4,61,11.1,91.5c-13,0-26.1,0-39.1,0   C878.4,859.2,870.4,786.9,862.3,714.5z M928.2,805.8c11.9-1.5,17.6-7.6,15.4-24.3c-1.2-9.2-2.4-18.4-3.6-27.6   c-2.2-16.7-9.1-20.6-20.7-18.3c-5.7,1.1-11.4,2.3-17.2,3.3c2.8,23,5.6,46,8.4,69C916.4,807.3,922.3,806.6,928.2,805.8z"></path>	</g>	<g>		<path d="M226.7,963.5h20.2c18.7,0,29.5,10.8,29.5,25.9v0.1c0,15.1-11,26.3-29.8,26.3h-19.9V963.5z M247.1,1002.9   c8.7,0,14.4-4.8,14.4-13.2v-0.1c0-8.4-5.8-13.2-14.4-13.2h-5.9v26.6H247.1z"></path>		<path d="M285,989.8v-0.1c0-15,12.1-27.2,28.2-27.2c16.1,0,28.1,12,28.1,27v0.1c0,15-12.1,27.2-28.2,27.2   C297,1016.8,285,1004.8,285,989.8z M326.6,989.8v-0.1c0-7.5-5.5-14.1-13.4-14.1c-7.9,0-13.2,6.4-13.2,14v0.1   c0,7.5,5.5,14.1,13.4,14.1C321.3,1003.7,326.6,997.3,326.6,989.8z"></path>		<path d="M350.1,989.8v-0.1c0-15.2,12-27.2,28.2-27.2c9.2,0,15.7,2.8,21.2,7.6l-8.5,10.2c-3.7-3.1-7.5-4.9-12.6-4.9   c-7.5,0-13.4,6.4-13.4,14.3v0.1c0,8.4,5.9,14.5,14.2,14.5c3.5,0,6.2-0.7,8.4-2.2v-6.4h-10.3v-10.6h24.1v23.5   c-5.5,4.6-13.2,8.1-22.7,8.1C362.3,1016.8,350.1,1005.6,350.1,989.8z"></path>		<path d="M448.8,976.2h-15.7v-12.7H479v12.7h-15.7v39.6h-14.5V976.2z"></path>		<path d="M488.3,963.5H513c8,0,13.5,2.1,17,5.7c3.1,3,4.6,7,4.6,12.2v0.1c0,8-4.3,13.3-10.8,16.1l12.5,18.2h-16.7l-10.5-15.8H509   h-6.2v15.8h-14.5V963.5z M512.4,988.6c4.9,0,7.8-2.4,7.8-6.2v-0.1c0-4.1-3-6.2-7.8-6.2h-9.5v12.6H512.4z"></path>		<path d="M562.2,963.1h14l22.3,52.7h-15.5l-3.8-9.3h-20.2l-3.7,9.3h-15.2L562.2,963.1z M574.9,995.1l-5.8-14.9l-5.9,14.9H574.9z"></path>		<path d="M606.8,963.5h14.6v52.3h-14.6V963.5z"></path>		<path d="M633.9,963.5h13.5l21.5,27.6v-27.6h14.3v52.3h-12.7l-22.3-28.7v28.7h-14.3V963.5z"></path>		<path d="M695.9,963.5h14.6v52.3h-14.6V963.5z"></path>		<path d="M723,963.5h13.5l21.5,27.6v-27.6h14.3v52.3h-12.7l-22.3-28.7v28.7H723V963.5z"></path>		<path d="M782.8,989.8v-0.1c0-15.2,12-27.2,28.2-27.2c9.2,0,15.7,2.8,21.2,7.6l-8.5,10.2c-3.7-3.1-7.5-4.9-12.6-4.9   c-7.5,0-13.4,6.4-13.4,14.3v0.1c0,8.4,5.9,14.5,14.2,14.5c3.5,0,6.2-0.7,8.4-2.2v-6.4h-10.3v-10.6H834v23.5   c-5.5,4.6-13.2,8.1-22.7,8.1C795,1016.8,782.8,1005.6,782.8,989.8z"></path>	</g></g></svg>