<svg xmlns="http://www.w3.org/2000/svg" id="Capa_1" data-name="Capa 1" viewBox="0 0 2311 890"><defs><style>.cls-1{fill:#f15a24;}.cls-2{fill:#fff;}</style></defs><title>PAWS UP-LOGO-VERSION 1_VERTICAL</title><path class="cls-1" d="M560.46,644.26c178.65,0,350.77,10.73,512.26,30.59a497.71,497.71,0,0,0,15.43-123.3C1088.15,277.3,865.83,55,591.58,55S95,277.3,95,551.55a497.79,497.79,0,0,0,13.71,116.34A4254.87,4254.87,0,0,1,560.46,644.26Z"></path><path class="cls-2" d="M990.22,640.75a43.67,43.67,0,0,1-5.18-.7c10.06-14.45,14.44-30.67,8-47.58-5.07-16.41-23.25-8-24-28.86-2.71-26.87-28.6-14.85-43.45-28.43-21.29-18.63-45.1,2.42-60.25,18.41-15,17.64-29.64-7.1-46.48,13.61-8.68,9.65-13.23,21.3-14.86,33.88-6.27,40.07,20.77,40.91-24.86,39.65,7.37-64.14,7.22-40.14,34.29-91.49,26.56-22.1,13.46-105,4.9-137-7.44-27.17-2.19-56-10.3-83.06-.44-1.45.39-3.24.43-4.88.83-7.72-1.18-17.25,1.15-24.38,4.74-5.44,4.91-11.45,4-18-3.3-10.35,1.61-26.77,14.78-19.5a47.21,47.21,0,0,1,12.11,9.87c28.21,31.33,80.42,12.22,21.91-31.73-18.75-13.72-35.58-29.43-52-45.8C741,127.52,662.69,202.17,585.35,207c-13.39,1.86-26,.61-39-2.49C511,194,473.1,193.44,438.76,179.94c-46.25-17.51-102.75,5.7-123.06,52.13-7.27,16.57-19.37,29.75-33.39,41.19-7.94,7-17.24,14-20.18,24.6-2.07,7.18,3.93,14.77,11.3,13.82,14.62-2.37,20.64-18.5,29-28.93,6.41-9.53,25.22-9.42,29.48,1.39,3.4,8.62,5.45,18.66,4.73,27.81-2.23,15.76,5.34,23.51,8.76,36.71-.9,16.73-1.59,33.5-3.45,50.13-7.44,58-10.65,122.49,27.3,171.21,6.57,8.76,13.62,17.39,18.62,27,7.43,16.44,18.93,29.88,31.06,42.18H344.85c21.73-22.35,27.33-44.71,12.4-72.87-4.12-8-9.88-13.13-18.71-14.59-9.31-1.54-15.28-6.72-20-15-10.33-20.41-34.38-38.41-55-20.1-15.28,11.78-30.2-4.22-42.91,17.36-8.9,17.68-27,12-31.2,30.43-3.16,14-15.32,27.45-7.39,41.66,7.56,13.81,14.83,24.86,29,33.8-14,1.37-35.35-3.54-46.29,3.21,84,9.26,171.31,13,256.79,15.93,5.05,0,8.75,1.31,12.29,5,20.13,21.58,41.88,30,65.59,47.66,8.64,7.76,12.26,17.13,8.5,29.2-8.86,30.19,0,63.79,30.65,77,28.59,13.41,59.32,18.35,89.51,16.77,26.33-3.86,64.26-14.59,72.88-46.37,13.49-30.8-16.67-65.53,13.56-88.82,17.73-13.16,36.62-11.6,47.85-31.07,2.56-4.38,5.28-6.08,10.46-6.07,84.1-2.62,169.74-9.51,252.49-18.17C1015.19,637.36,1001.84,642,990.22,640.75Z"></path><path d="M990.22,640.75a43.67,43.67,0,0,1-5.18-.7c10.06-14.45,14.44-30.67,8-47.58-5.07-16.41-23.25-8-24-28.86-2.71-26.87-28.6-14.85-43.45-28.43-21.29-18.63-45.1,2.42-60.25,18.41-15,17.64-29.64-7.1-46.48,13.61-8.68,9.65-13.23,21.3-14.86,33.88-6.27,40.07,20.77,40.91-24.86,39.65,7.37-64.14,7.22-40.14,34.29-91.49,26.56-22.1,13.46-105,4.9-137-7.44-27.17-2.19-56-10.3-83.06-.44-1.45.39-3.24.43-4.88.83-7.72-1.18-17.25,1.15-24.38,4.74-5.44,4.91-11.45,4-18-3.3-10.35,1.61-26.77,14.78-19.5a47.21,47.21,0,0,1,12.11,9.87c28.21,31.33,80.42,12.22,21.91-31.73-18.75-13.72-35.58-29.43-52-45.8C741,127.52,662.69,202.17,585.35,207c-13.39,1.86-26,.61-39-2.49C511,194,473.1,193.44,438.76,179.94c-46.25-17.51-102.75,5.7-123.06,52.13-7.27,16.57-19.37,29.75-33.39,41.19-7.94,7-17.24,14-20.18,24.6-2.07,7.18,3.93,14.77,11.3,13.82,14.62-2.37,20.64-18.5,29-28.93,6.41-9.53,25.22-9.42,29.48,1.39,3.4,8.62,5.45,18.66,4.73,27.81-2.23,15.76,5.34,23.51,8.76,36.71-.9,16.73-1.59,33.5-3.45,50.13-7.44,58-10.65,122.49,27.3,171.21,6.57,8.76,13.62,17.39,18.62,27,7.43,16.44,18.93,29.88,31.06,42.18H344.85c21.73-22.35,27.33-44.71,12.4-72.87-4.12-8-9.88-13.13-18.71-14.59-9.31-1.54-15.28-6.72-20-15-10.33-20.41-34.38-38.41-55-20.1-15.28,11.78-30.2-4.22-42.91,17.36-8.9,17.68-27,12-31.2,30.43-3.16,14-15.32,27.45-7.39,41.66,7.56,13.81,14.83,24.86,29,33.8-14,1.37-35.35-3.54-46.29,3.21,84,9.26,171.31,13,256.79,15.93,5.05,0,8.75,1.31,12.29,5,20.13,21.58,41.88,30,65.59,47.66,8.64,7.76,12.26,17.13,8.5,29.2-8.86,30.19,0,63.79,30.65,77,28.59,13.41,59.32,18.35,89.51,16.77,26.33-3.86,64.26-14.59,72.88-46.37,13.49-30.8-16.67-65.53,13.56-88.82,17.73-13.16,36.62-11.6,47.85-31.07,2.56-4.38,5.28-6.08,10.46-6.07,84.1-2.62,169.74-9.51,252.49-18.17C1015.19,637.36,1001.84,642,990.22,640.75ZM849.43,241.37c8,4.84,48.27,33.52,23.91,38.37,2.93-9.51-3.29-13.74-9.47-18.93s-10.68-12-15.94-18.09ZM218.31,616.51c-10.61,4.9-16.33-9.53-23-15.33-1.67-1.89-1.27-5.29-3.15-7.24,5.13-7,10.92-14,15.48-2.31C210.92,599,221.67,608.17,218.31,616.51Zm3.27-60.26c2.74-16.25,20.12-13,20.61,1.5-.69,15.88,5.23,18.36,10.29,30.47C247.53,615.76,215.37,568.13,221.58,556.25Zm4.35,83.28c10-36.69,77.84-44.49,88.1,0Zm83.8-60.35c-19.41,13.38-37.27,25.33-33.2-9.81,2.73-9.94-.77-26,10.53-30.51,8.27-4.63,25.81,23.81,29.22,30.79C313.9,573.26,312.51,577.19,309.73,579.18Zm15.68,30.28c5.87-10.63,21.41-38.2,27.95-12.69,2.4,12.26-5.07,23-14.8,29.3C329.33,631.7,319,617.67,325.41,609.46ZM783.8,253.82c-22.11-12.62-47.59-24.47-61.44-46.65,19.42,1.21,38.91.44,55.74,11.5l-1.82,1.47c-4.36,12.68-2.64,19.76,12.05,17.71,13.93-.56,16.59,1.23,22.85,16.25C802,258.25,792.87,258.26,783.8,253.82ZM347.51,257.9c.43,1,.87,2,1.3,3.05l-13.73,9.73,14.59,3-10.36,8.73c-5.5-11.13-14.95-14.37-24.79-14.5,10.23-16.41,15.53-41.81,38-45,21.66-2.8,42.54-10.2,64.5-9-13.41,8.71,8.62,15.8-7.52,28-3.73-11.86-13.27-12.26-23.77-11.28-11.61,2.78-21.17,17-34.14,8.67C333.66,231.44,317.16,262.94,347.51,257.9Zm24.22,276.49,1,19.42C368.19,549.16,367.92,541.32,371.73,534.39ZM503,675.86a13.61,13.61,0,0,1-21.29,6.22l-.34-.28c-20.31-16.8-26.11-40.64-48.67-54.86C422.25,619.81,403,598.77,394,579.09c-4.05-8.81,7.68-16.11,13.78-8.56,7.83,9.69,14.68,20.13,21.65,30.71a59.7,59.7,0,0,0,14.82,13.6c29.15,17.89,35.8,20.76,58.59,46.15,1.72,1.92,1.72,5.39,2.5,8.07Zm21.77-8.81c-14.3-12.29-6.2-10.28-11.84-22.26-7.16-6.78-7.52-15.63-8.37-25.35l11.33-3.05c3.76,17.08,7.35,33.39,10.93,49.69Zm168,116.71c-3,11.78-10.55,20.53-22.09,22.85a29.5,29.5,0,0,1-3.08.4c-38.61,3.53-68.29,7.34-105.81-7.42a49.34,49.34,0,0,1-23.62-19.07c-26-40.58,18.57-78.34,4.3-124-.45-1.45-.94-2.88-1.32-4.34-2.69-10.13-3.71-19.91-5.75-30.83,22.05,12.12,24.06,5,46,5,6.23,0,7.51,1.86,7.75,7.81,8.48,26.55,9.63,57.7,9.14,89.39-.06,4.18,6.66,3.75,6.66-.43V635a8.09,8.09,0,0,1,7.35-8C631.73,625,650,619.78,667,610.44,660.38,670.05,704.8,724.2,692.76,783.76ZM599.5,486.93a32.88,32.88,0,0,0-5.67-11.78c-3-4.25-7.45-7.23-13.1-5.73s-7.76,6-8.76,11.34c-1.86,10.05-3,12.52-10,12.13-2.49-8.59-3.67-17.92-5-26.28-1.27-9.14,2.66-17.14,11.1-21.17,34.08-16.24,51.17-18.38,85.46-5.68,24.21,9,30.48,27.48,19.31,49.7a2.3,2.3,0,0,0-2.55-2.95l-.13,0c-7.21,1.06-10.57-1.16-12.69-8.28a39.64,39.64,0,0,0-1.94-6c-3-6.06-10.39-8.87-16.18-5.84-6.45,3.38-10.16,8.83-10.53,16.29s2.64,13.23,9,17c9.38,5.55,26.82.45,34.61-9.51.06-.08.08-.16.13-.24-.46.9-.94,1.81-1.46,2.72-10.8,19.15-30,28.33-47.84,41.56a4.91,4.91,0,0,1-7.83-3.52c-1.21-14.44-2.3-27.44-3.4-40.45l-1.61.08c0,12.45-1.77,20.7-2.42,32.44-.21,3.88-3.38,6-7,4.47s-4.68-3.43-14.62-6.79a31,31,0,0,1-19.17-14.87c6.79,2.42,14,1.62,21.39-.75C597.63,501.94,601.47,496.1,599.5,486.93ZM677.6,604.6c5,3.51,13.9,4.23,14.91,10-2.61,12.1,3.69,43.06-13.13,44.34C675.53,640.9,673.49,623.34,677.6,604.6Zm73.81,35c-3.67,27-38.12,45.72-59.16,63.14-2.38-7.41-8.22-25-10-32.63,16.37-3.6,20.71-21.9,35-28.37,24.64-11.17,24.61-20.28,41.18-40.52C755.85,615.17,753.55,627.38,751.41,639.62Zm20.86-84.1a11.88,11.88,0,0,1-17.46-11.43c6.79-79.85-38.83-69.81-81.25-140.44,2.92,28.19,25.82,49.64,42.32,71.23C746.51,501.57,759.29,628.65,694.3,605c-23.25-11.67-47.92-18.08-73.15-23-3.63-.71-4.94-2.21-4.84-5.91-.78-36.41-2-27,27.44-45.64,91.5-59.12,20.4-130.49-64.61-104.23C557.67,432.45,526,440.33,530.76,469c3.76,42.43,16.45,58.7,59.14,65.43,10.54,2.86,22.58,4.23,20,18-1.42,7.23,2.34,24.44-4.6,28-49.47,4.28-46.68,24.66-96.66,20.76-15.67-1.22-29.21-12.1-33-27.36-2.15-8.72-.6-16.81,2.33-31.43,2.42-62.62,30.16-86.42,66-130.83-40.17,36.5-86.88,66.41-90.72,125.76-2.75,24.58-14.86,44.29-.51,68.31-38-19.59-11.77-40.83-37.54-55.55-12.17-6-16.87-27.93-16.87-27.93-.19-16.76,20.75-23.68,34.38-26.4,32.37-4.15,28.92-29.79,51.83-50.93,12.74-11.75,45.42-44.19,51.22-77.28a2.63,2.63,0,0,0-4.85-1.79C514.38,393.26,464.22,469,414.74,469c-21.59,0-47.42,40.86-49,28.75-4.85-55.38,10.09-110.06,12.4-165.29v-.14a31.44,31.44,0,0,1,11.41-21.75c17.83-14.76,9.94-28.26,49.05-30.82,20.23-1.33,68.12,2.12,60-5s-43.52-24.88-75.51-13.06a45.2,45.2,0,0,0-9.37,4.92c2.82-5.76,5.66-11.59,11.77-17.46,7.28-7,14-14.61,17.2-25.59l-10.23,2.27c3.71-7.66-6.34-6.84-2.54-12.92,3.39-5.4,2.07-7.78-3-10.77-21-12.26-33.07-5.06-55.3,5.19-25,11.54,11.53-31.88,48-25.82,21.37,5.35,40.09,24.33,62.52,25.82,22,2.38,43.3,17.37,64.43,24.12,24.94,5.86,51.2-2.23,76.26-4.63,23.19-3.72,46.62-30.41,67.45-41.15,33.39-17,73.31-15.8,103.94,5.54,11.89,10.44,23.14,21.62,34.64,32.5l-1.37,1.59c-27.35-21.06-53.12-53.39-91.74-44.5-12.84,3.24-27.39,2.78-39.19,8.62.9,1.25,1.53,3.18,2.74,3.66,13.64,5.86,16.76,23.08,25.56,33.48h0a91.45,91.45,0,0,0-38.25-8.29c-8.85,0-17.51.05-17.78.49,48.78,38,129.89,89.63,127.12,155.63.1,42.8,22.89,83.66,10.1,126.72-10.56-14-26.39-18.85-40.1-27-31.46-18.48-52.15-48.37-74.9-75.89l-1.65,1.06c10.25,20.93,26.76,38.39,40.58,57.06,13,16,30.14,26.49,48.85,34.7,9.75,4.2,15.9,8.49,22.78,17.64-.24,20.61-4.73,45.93-18.25,62.26-2.21,2.36,10.32-41.51,7.39-41S774.82,554.2,772.27,555.52ZM873.43,585.8c.73-14.39,26.25-48.09,39.56-30,1,1.87,1.28,5.6.13,6.81-10,11.49-1.44,30.9-17.92,37.89C884.13,606.56,871.24,597.67,873.43,585.8ZM852,592.86c-10.52,9.68,2.91,30.13-12.3,35.28-12.09,2.53-13.87-11.34-16.52-19.8,1.29-11.66,5.44-21.38,14.1-28.83C847.09,569.91,861,582.47,852,592.86Zm77.8,47.23H863.3c9.27-11.5,20.12-16.3,34.12-13,11.67,2.56,23.85,2.65,33.14,11.21Zm3.64-25.2c-2.41,1.4-7.78,1.71-9,.24-2-3.46-2.39-10.81,1.47-14,7.29-7.35,12.93-15.59,15.28-25.9.48-2.07,2.3-3.84,3.74-6.14C965.51,582.33,948.86,606.18,933.48,614.89Zm48.4,13.52c-5.54,7.48-13.43,11.21-23.71,12.88l-7.45-3.61c4-11.2,15.7-16.08,24.46-23.09C985.33,609,986.59,622.41,981.88,628.41Z"></path><path d="M488.9,356.72c-10.71-14.3-29.52-15.5-42.17-2.83-6.63,6.65-11.81,14.81-23.71,10.34l0,3.06c4.33,1.17,8.73,2.11,12.95,3.58,2.4.83,5.48,2,6.58,3.93,13.58,23.92,36.59,17.88,55.82,9.28,1.25-.56,2.61-3.77,2.09-4.91C497,371.51,493.89,363.38,488.9,356.72Zm-18.62,31.43c-9.51.35-16.3-5.86-16.57-15.17-.31-10.8,5.21-16.77,15.73-17,10.3-.26,21.71,9.21,22.05,18.29C491.76,381.58,482.41,387.71,470.28,388.15Z"></path><path d="M724.59,379.09c15.39-.47,27.61-7.85,30.43-19.45,1.62-6.68,5.8-8.13,11.2-8.95,2.06-.31,4.17-.31,7.11-.5-4-4.54-5.25-5.18-11.64-4.07-4.15.72-7-.35-10.15-3.18C734,327.29,714,332.46,706.08,354.74c-2,5.57-5.63,13.46-3.37,17C707.09,378.61,716.38,379.35,724.59,379.09Zm-16.25-20.18c4.34-11.47,15.09-18.77,24-16.29,11.3,3.12,16.72,18.3,8.92,27.08-2.78,3.12-8.44,3.67-11.32,4.81-6.15-.8-10.41-1.07-14.53-2C708.84,371.12,705.94,365.26,708.34,358.91Z"></path><path d="M482.12,361.78c-5.17-4.33-11.56-4.28-16.29.67a33.71,33.71,0,0,1,5.06,2.64c3.16,2.39,2.11,7.54-1.18,6.73-2.52-.61-4.39-3.93-6.93-6.41-4.53,6.91-3.83,14.06,2,18.34s14.72,3.29,19.14-2.28A14,14,0,0,0,482.12,361.78Z"></path><path d="M728.42,372.22c5.85,0,8.83-5.23,9.83-10.94s-.06-11.44-5.56-13.61c-4.19-1.66-10.14-2.67-14.14-.31-3.12,1.84-1,6.28-1.63,10.79-3.66.74-9.07,3.53-3.33,9.09C717,370.57,723.38,372.23,728.42,372.22Z"></path><path d="M1318,610.75h23.8c22,0,34.81,12.69,34.81,30.49v.18c0,17.8-13,31-35.17,31H1318ZM1342,657.28c10.22,0,17-5.64,17-15.6v-.17c0-9.88-6.79-15.6-17-15.6h-7v31.37Z"></path><path d="M1386.78,641.77v-.18c0-17.71,14.28-32.08,33.32-32.08s33.14,14.19,33.14,31.91v.17c0,17.72-14.28,32.08-33.32,32.08S1386.78,659.49,1386.78,641.77Zm49,0v-.18c0-8.9-6.43-16.65-15.86-16.65s-15.6,7.58-15.6,16.48v.17c0,8.9,6.43,16.66,15.78,16.66S1435.78,650.67,1435.78,641.77Z"></path><path d="M1463.55,641.77v-.18c0-18,14.1-32.08,33.22-32.08,10.84,0,18.51,3.35,25,9l-10,12.08c-4.41-3.7-8.82-5.82-14.9-5.82-8.9,0-15.77,7.49-15.77,16.92v.18c0,10,7,17.1,16.74,17.1a17.46,17.46,0,0,0,9.87-2.56v-7.49h-12.16V636.39h28.38v27.77a41.74,41.74,0,0,1-26.79,9.51C1477.91,673.67,1463.55,660.45,1463.55,641.77Z"></path><path d="M1580,625.73h-18.51v-15h54.12v15h-18.51v46.71H1580Z"></path><path d="M1626.59,610.75h29.17c9.44,0,16,2.46,20.1,6.69,3.61,3.53,5.46,8.29,5.46,14.37V632c0,9.43-5,15.68-12.69,19l14.72,21.5h-19.74l-12.43-18.68h-7.49v18.68h-17.1ZM1655,640.36c5.82,0,9.17-2.82,9.17-7.32v-.17c0-4.85-3.53-7.32-9.26-7.32h-11.19v14.81Z"></path><path d="M1713.76,610.31h16.48l26.26,62.13h-18.33l-4.5-11h-23.79l-4.41,11h-18Zm15,37.81-6.88-17.54-7,17.54Z"></path><path d="M1766.37,610.75h17.19v61.69h-17.19Z"></path><path d="M1798.36,610.75h16l25.38,32.61V610.75h16.92v61.69h-15l-26.35-33.84v33.84h-16.93Z"></path><path d="M1871.43,610.75h17.18v61.69h-17.18Z"></path><path d="M1903.42,610.75h15.95l25.38,32.61V610.75h16.93v61.69h-15l-26.35-33.84v33.84h-16.92Z"></path><path d="M1974,641.77v-.18c0-18,14.1-32.08,33.23-32.08,10.84,0,18.51,3.35,25,9l-10,12.08c-4.4-3.7-8.81-5.82-14.89-5.82-8.9,0-15.78,7.49-15.78,16.92v.18c0,10,7,17.1,16.75,17.1a17.48,17.48,0,0,0,9.87-2.56v-7.49H2006V636.39h28.38v27.77a41.76,41.76,0,0,1-26.8,9.51C1988.38,673.67,1974,660.45,1974,641.77Z"></path><path class="cls-1" d="M1153.26,278.25h66.89c45.42,0,67.72,25.19,67.72,71.43v28.49c0,46.25-22.3,71.43-67.72,71.43h-21.47V567.27h-45.42Zm66.89,130.06c14.45,0,22.3-6.6,22.3-27.25V346.79c0-20.64-7.85-27.25-22.3-27.25h-21.47v88.77Z"></path><path class="cls-1" d="M1333.28,278.25h61.52l47.07,289h-45.42l-8.26-57.39v.83h-51.61l-8.25,56.56h-42.12Zm49.55,193.23L1362.6,328.63h-.83L1342,471.48Z"></path><path class="cls-1" d="M1447.23,278.25H1491l20.23,222.14h.83l21.47-222.14h49.54l21.47,222.14h.83l20.23-222.14h39.22l-29.31,289h-56.57L1558.3,372.39h-.83l-20.64,194.88h-60.28Z"></path><path class="cls-1" d="M1680.1,498.73V482.22H1723V502c0,20.64,9.08,28.07,23.53,28.07s23.53-7.43,23.53-28.9c0-23.95-9.08-39.22-38.81-65.23-38-33.45-50.37-57-50.37-90,0-45.42,23.54-71.85,67.71-71.85s66.07,26.43,66.07,72.67v12h-42.94V343.9c0-20.64-8.26-28.49-22.71-28.49s-22.71,7.85-22.71,27.67c0,21.05,9.49,36.33,39.22,62.34,38,33.45,50,56.57,50,92.49,0,47.07-23.94,73.49-68.54,73.49S1680.1,545,1680.1,498.73Z"></path><path class="cls-1" d="M1905.93,498.73V278.25h45.42V502c0,20.64,8.67,28.07,23.12,28.07s23.12-7.43,23.12-28.07V278.25h43.77V498.73c0,46.25-23.12,72.67-67.71,72.67S1905.93,545,1905.93,498.73Z"></path><path class="cls-1" d="M2073.56,278.25h66.89c45.42,0,67.71,25.19,67.71,71.43v28.49c0,46.25-22.29,71.43-67.71,71.43H2119V567.27h-45.42Zm66.89,130.06c14.45,0,22.3-6.6,22.3-27.25V346.79c0-20.64-7.85-27.25-22.3-27.25H2119v88.77Z"></path></svg>